<svg width="94" height="18" viewBox="0 0 94 18" fill="none" xmlns="http://www.w3.org/2000/svg">
<path d="M8.07095 1.92893V16.0711" stroke="#FF7622" stroke-width="2" stroke-linecap="round" stroke-linejoin="round"/>
<path d="M0.999878 9H15.142" stroke="#FF7622" stroke-width="2" stroke-linecap="round" stroke-linejoin="round"/>
<path d="M30.7728 3.77148L35.0385 13H32.8099L32.1127 11.291H28.4896L27.7924 13H25.5638L29.8295 3.77148H30.7728ZM30.308 6.875L29.1595 9.67773H31.4564L30.308 6.875ZM40.097 3.62109C41.0632 3.62109 41.9108 3.81706 42.64 4.20898C43.3692 4.60091 43.9343 5.14779 44.3353 5.84961C44.7455 6.55143 44.9506 7.3763 44.9506 8.32422C44.9506 9.22656 44.7592 10.0469 44.3763 10.7852C43.9935 11.5143 43.4467 12.0931 42.7357 12.5215C42.0248 12.9499 41.1771 13.1641 40.1927 13.1641C39.5638 13.1641 38.9349 13.1322 38.306 13.0684C37.6862 13.0046 37.0983 12.918 36.5424 12.8086V3.97656C37.1075 3.88542 37.6862 3.80339 38.2787 3.73047C38.8711 3.65755 39.4773 3.62109 40.097 3.62109ZM40.1381 5.39844C39.8646 5.39844 39.5775 5.41211 39.2767 5.43945C38.976 5.4668 38.698 5.50326 38.4427 5.54883V11.2363C38.7162 11.291 38.9987 11.332 39.2904 11.3594C39.5912 11.3776 39.8737 11.3867 40.1381 11.3867C40.7396 11.3867 41.2546 11.2591 41.683 11.0039C42.1114 10.7396 42.4395 10.3796 42.6674 9.92383C42.8952 9.4681 43.0092 8.95768 43.0092 8.39258C43.0092 7.80924 42.8952 7.29427 42.6674 6.84766C42.4395 6.40104 42.1114 6.05013 41.683 5.79492C41.2546 5.5306 40.7396 5.39844 40.1381 5.39844ZM50.4877 3.62109C51.4538 3.62109 52.3015 3.81706 53.0306 4.20898C53.7598 4.60091 54.3249 5.14779 54.726 5.84961C55.1361 6.55143 55.3412 7.3763 55.3412 8.32422C55.3412 9.22656 55.1498 10.0469 54.767 10.7852C54.3842 11.5143 53.8373 12.0931 53.1263 12.5215C52.4154 12.9499 51.5677 13.1641 50.5834 13.1641C49.9545 13.1641 49.3256 13.1322 48.6967 13.0684C48.0769 13.0046 47.489 12.918 46.933 12.8086V3.97656C47.4981 3.88542 48.0769 3.80339 48.6693 3.73047C49.2618 3.65755 49.8679 3.62109 50.4877 3.62109ZM50.5287 5.39844C50.2552 5.39844 49.9681 5.41211 49.6674 5.43945C49.3666 5.4668 49.0886 5.50326 48.8334 5.54883V11.2363C49.1068 11.291 49.3894 11.332 49.681 11.3594C49.9818 11.3776 50.2644 11.3867 50.5287 11.3867C51.1302 11.3867 51.6452 11.2591 52.0736 11.0039C52.502 10.7396 52.8301 10.3796 53.058 9.92383C53.2858 9.4681 53.3998 8.95768 53.3998 8.39258C53.3998 7.80924 53.2858 7.29427 53.058 6.84766C52.8301 6.40104 52.502 6.05013 52.0736 5.79492C51.6452 5.5306 51.1302 5.39844 50.5287 5.39844ZM69.4369 3.83984V13.0684H68.7533L63.3256 7.47656V13H61.4252V3.77148H62.1088L67.5365 9.44531V3.83984H69.4369ZM78.1185 7.55859V9.10352H74.0717V11.3184H78.6517V13H72.1713V3.83984H78.6517V5.48047H74.0717V7.55859H78.1185ZM92.7201 3.83984L89.6302 13H88.3177L86.2806 7.10742L84.2435 13H82.931L79.8822 3.83984H82.0424L83.7377 9.62305L85.6654 3.83984H86.9369L88.8373 9.62305L90.5599 3.83984H92.7201Z" fill="#FF7622"/>
</svg>
