<svg width="87" height="17" viewBox="0 0 87 17" fill="none" xmlns="http://www.w3.org/2000/svg">
<path d="M4.88867 3.62109C5.56315 3.62109 6.14648 3.73503 6.63867 3.96289C7.13997 4.18164 7.52734 4.48242 7.80078 4.86523C8.07422 5.24805 8.21094 5.6901 8.21094 6.19141C8.21094 6.63802 8.08333 7.04818 7.82812 7.42188C7.57292 7.78646 7.25391 8.0599 6.87109 8.24219C7.14453 8.29688 7.41341 8.41081 7.67773 8.58398C7.94206 8.75716 8.16081 8.99414 8.33398 9.29492C8.51628 9.5957 8.60742 9.9694 8.60742 10.416C8.60742 10.9264 8.46159 11.3867 8.16992 11.7969C7.87826 12.207 7.45898 12.5352 6.91211 12.7812C6.37435 13.0182 5.73633 13.1367 4.99805 13.1367C4.43294 13.1367 3.84049 13.1003 3.2207 13.0273C2.61003 12.9635 2.09049 12.8861 1.66211 12.7949V3.96289C2.13607 3.85352 2.65104 3.77148 3.20703 3.7168C3.77214 3.65299 4.33268 3.62109 4.88867 3.62109ZM4.80664 4.7832C4.42383 4.7832 4.07747 4.79688 3.76758 4.82422C3.4668 4.85156 3.17513 4.89258 2.89258 4.94727V7.81836H5.03906C5.65885 7.81836 6.13281 7.66341 6.46094 7.35352C6.78906 7.03451 6.95312 6.66536 6.95312 6.24609C6.95312 5.91797 6.85286 5.64909 6.65234 5.43945C6.45182 5.2207 6.1875 5.05664 5.85938 4.94727C5.54036 4.83789 5.18945 4.7832 4.80664 4.7832ZM2.89258 11.8105C3.2207 11.8743 3.58529 11.9199 3.98633 11.9473C4.38737 11.9655 4.71549 11.9746 4.9707 11.9746C5.6543 11.9746 6.2194 11.8333 6.66602 11.5508C7.12174 11.2682 7.34961 10.89 7.34961 10.416C7.34961 9.91471 7.1263 9.54102 6.67969 9.29492C6.24219 9.03971 5.70443 8.91211 5.06641 8.91211H2.89258V11.8105ZM11.8066 6.16406V7.53125C12.071 7.07552 12.39 6.71094 12.7637 6.4375C13.1374 6.16406 13.5202 6.02734 13.9121 6.02734C14.1764 6.02734 14.4134 6.07292 14.623 6.16406V7.46289C14.3314 7.28971 14.0397 7.20312 13.748 7.20312C13.2832 7.20312 12.9049 7.36719 12.6133 7.69531C12.3307 8.02344 12.0618 8.41536 11.8066 8.87109V13H10.6855V6.16406H11.8066ZM18.875 6.02734C19.5768 6.02734 20.1602 6.17318 20.625 6.46484C21.0898 6.75651 21.4362 7.15299 21.6641 7.6543C21.901 8.1556 22.0195 8.7207 22.0195 9.34961V10.0195H16.7695C16.8242 10.4023 16.9564 10.7533 17.166 11.0723C17.3757 11.3913 17.6491 11.6465 17.9863 11.8379C18.3236 12.0202 18.7109 12.1113 19.1484 12.1113C19.6406 12.1113 20.1009 11.9883 20.5293 11.7422C20.9577 11.487 21.3177 11.209 21.6094 10.9082L21.5957 12.125C21.4681 12.2799 21.2767 12.444 21.0215 12.6172C20.7754 12.7812 20.4883 12.918 20.1602 13.0273C19.8411 13.1458 19.5039 13.2051 19.1484 13.2051C18.4557 13.2051 17.8405 13.041 17.3027 12.7129C16.765 12.3848 16.3411 11.9518 16.0312 11.4141C15.7305 10.8672 15.5801 10.2702 15.5801 9.62305C15.5801 8.97591 15.7214 8.37891 16.0039 7.83203C16.2865 7.28516 16.6738 6.84766 17.166 6.51953C17.6673 6.19141 18.237 6.02734 18.875 6.02734ZM18.875 7.12109C18.3099 7.12109 17.8451 7.3125 17.4805 7.69531C17.1159 8.06901 16.888 8.52474 16.7969 9.0625H20.9121C20.8665 8.61589 20.7389 8.2513 20.5293 7.96875C20.3288 7.6862 20.0827 7.47656 19.791 7.33984C19.4993 7.19401 19.194 7.12109 18.875 7.12109ZM26.6816 6.02734C27.0736 6.02734 27.4701 6.12305 27.8711 6.31445C28.2812 6.49674 28.6322 6.75195 28.9238 7.08008V6.16406H30.0449V13H28.9238V11.8379C28.6868 12.2025 28.3633 12.5215 27.9531 12.7949C27.5521 13.0684 27.0918 13.2051 26.5723 13.2051C25.9889 13.2051 25.4557 13.0592 24.9727 12.7676C24.4896 12.4668 24.1022 12.0521 23.8105 11.5234C23.528 10.9948 23.3867 10.3841 23.3867 9.69141C23.3867 8.9349 23.528 8.2832 23.8105 7.73633C24.1022 7.18945 24.4987 6.77018 25 6.47852C25.5013 6.17773 26.0618 6.02734 26.6816 6.02734ZM26.8867 7.12109C26.3945 7.12109 25.9753 7.24414 25.6289 7.49023C25.2826 7.73633 25.0137 8.05534 24.8223 8.44727C24.64 8.83008 24.5488 9.24479 24.5488 9.69141C24.5488 10.1289 24.64 10.5345 24.8223 10.9082C25.0046 11.2728 25.2598 11.5645 25.5879 11.7832C25.9251 12.002 26.3125 12.1113 26.75 12.1113C27.1693 12.1113 27.543 12.002 27.8711 11.7832C28.1992 11.5645 28.459 11.2637 28.6504 10.8809C28.8418 10.4889 28.9329 10.0514 28.9238 9.56836L28.9102 8.25586C28.6276 7.90039 28.3223 7.6224 27.9941 7.42188C27.6751 7.22135 27.306 7.12109 26.8867 7.12109ZM38.4121 6.16406L35.2402 9.14453L38.5898 13H37.168L34.4609 9.88281L33.4902 10.7852V13H32.3691V3.15625H33.4902V9.5L36.8945 6.16406H38.4121ZM46 3.15625V13H44.8789V11.8379C44.6419 12.2025 44.3184 12.5215 43.9082 12.7949C43.5072 13.0684 43.0469 13.2051 42.5273 13.2051C41.944 13.2051 41.4108 13.0592 40.9277 12.7676C40.4447 12.4668 40.0573 12.0521 39.7656 11.5234C39.4831 10.9948 39.3418 10.3841 39.3418 9.69141C39.3418 8.9349 39.4831 8.2832 39.7656 7.73633C40.0573 7.18945 40.4538 6.77018 40.9551 6.47852C41.4564 6.17773 42.0169 6.02734 42.6367 6.02734C43.0286 6.02734 43.4251 6.12305 43.8262 6.31445C44.2363 6.49674 44.5872 6.75195 44.8789 7.08008V3.15625H46ZM42.8418 7.14844C42.3496 7.14844 41.9303 7.27148 41.584 7.51758C41.2376 7.75456 40.9688 8.06445 40.7773 8.44727C40.5951 8.83008 40.5039 9.24479 40.5039 9.69141C40.5039 10.1289 40.5951 10.5345 40.7773 10.9082C40.9596 11.2728 41.2148 11.5645 41.543 11.7832C41.8802 12.002 42.2676 12.1113 42.7051 12.1113C43.1243 12.1113 43.498 12.002 43.8262 11.7832C44.1543 11.5645 44.4141 11.2637 44.6055 10.8809C44.7969 10.4889 44.888 10.0514 44.8789 9.56836L44.8652 8.25586C44.5827 7.90039 44.2773 7.62695 43.9492 7.43555C43.6302 7.24414 43.2611 7.14844 42.8418 7.14844ZM51.4141 6.02734C52.1068 6.02734 52.722 6.19141 53.2598 6.51953C53.7975 6.84766 54.2168 7.28516 54.5176 7.83203C54.8275 8.37891 54.9824 8.97591 54.9824 9.62305C54.9824 10.2702 54.8275 10.8672 54.5176 11.4141C54.2168 11.9518 53.7975 12.3848 53.2598 12.7129C52.722 13.041 52.1068 13.2051 51.4141 13.2051C50.7214 13.2051 50.1061 13.041 49.5684 12.7129C49.0306 12.3848 48.6068 11.9518 48.2969 11.4141C47.9961 10.8672 47.8457 10.2702 47.8457 9.62305C47.8457 8.97591 47.9961 8.37891 48.2969 7.83203C48.6068 7.28516 49.0306 6.84766 49.5684 6.51953C50.1061 6.19141 50.7214 6.02734 51.4141 6.02734ZM51.4141 7.12109C50.931 7.12109 50.5072 7.23958 50.1426 7.47656C49.778 7.70443 49.4954 8.00977 49.2949 8.39258C49.1035 8.76628 49.0078 9.17643 49.0078 9.62305C49.0078 10.0605 49.1035 10.4707 49.2949 10.8535C49.4954 11.2272 49.778 11.5326 50.1426 11.7695C50.5072 11.9974 50.931 12.1113 51.4141 12.1113C51.9062 12.1113 52.3301 11.9974 52.6855 11.7695C53.0501 11.5326 53.3281 11.2272 53.5195 10.8535C53.7201 10.4707 53.8203 10.0605 53.8203 9.62305C53.8203 9.17643 53.7201 8.76628 53.5195 8.39258C53.3281 8.00977 53.0501 7.70443 52.6855 7.47656C52.3301 7.23958 51.9062 7.12109 51.4141 7.12109ZM65.7969 6.16406L63.4043 13H62.707L60.834 8.17383L58.9609 13H58.2637L55.8711 6.16406H57.2109L58.7285 10.9629L60.5195 6.16406H61.1484L62.9395 10.9629L64.457 6.16406H65.7969ZM68.2852 6.16406V7.24414C68.431 7.06185 68.6178 6.87956 68.8457 6.69727C69.0736 6.50586 69.3288 6.34635 69.6113 6.21875C69.903 6.09115 70.2038 6.02734 70.5137 6.02734C70.9785 6.02734 71.4023 6.13216 71.7852 6.3418C72.168 6.54232 72.4733 6.85221 72.7012 7.27148C72.929 7.68164 73.043 8.20117 73.043 8.83008V13H71.9219L71.9082 8.93945C71.9082 8.34701 71.776 7.89583 71.5117 7.58594C71.2565 7.27604 70.86 7.12109 70.3223 7.12109C69.9577 7.12109 69.5931 7.25781 69.2285 7.53125C68.873 7.79557 68.5586 8.10547 68.2852 8.46094V13H67.1641V6.16406H68.2852Z" fill="#FF7622"/>
<path d="M81 4L86 9L81 14" stroke="#181C2E" stroke-linecap="round" stroke-linejoin="round"/>
</svg>
