<svg width="169" height="107" viewBox="0 0 169 107" fill="none" xmlns="http://www.w3.org/2000/svg">
<mask id="mask0_0_1229" style="mask-type:luminance" maskUnits="userSpaceOnUse" x="0" y="0" width="169" height="107">
<rect width="168.513" height="106.203" rx="14" fill="white"/>
</mask>
<g mask="url(#mask0_0_1229)">
<rect x="-0.000976562" y="0.000244141" width="168.513" height="106.203" rx="3" fill="#FF7622"/>
<path d="M124.939 110.192L93.0391 73.9854L73.9039 95.6883L124.447 153.053H162.704L124.939 110.192Z" fill="#FECB5F"/>
<path d="M124.94 84.1302L162.704 127.053H200.961L144.075 62.3958L124.94 84.1302Z" fill="#F8F9FA"/>
<path d="M59.1202 -14.7407L124.037 58.6986L180.924 123.053H209.763V112.399L78.2426 -36.3879L59.1202 -14.7407Z" fill="#EB001B"/>
<path d="M144.514 17.9061L198.741 79.4325V36.0256L163.649 -3.80444L144.514 17.9061Z" fill="#FECB5F"/>
<path d="M21.8353 21.4884H16.3544V11.156H21.8354L21.8353 21.4884Z" fill="#FF5F00"/>
<path d="M16.5474 16.3922C16.5474 14.2963 17.4829 12.4292 18.9398 11.226C17.837 10.3139 16.4731 9.81888 15.0688 9.82105C11.6094 9.82105 8.80518 12.763 8.80518 16.3922C8.80518 20.0214 11.6094 22.9634 15.0688 22.9634C16.4731 22.9656 17.8371 22.4706 18.9399 21.5584C17.4831 20.3554 16.5474 18.4883 16.5474 16.3922Z" fill="#EB001B"/>
<path d="M29.0056 16.3922C29.0056 20.0214 26.2013 22.9634 22.742 22.9634C21.3375 22.9656 19.9733 22.4705 18.8704 21.5584C20.3276 20.3552 21.2631 18.4883 21.2631 16.3922C21.2631 14.2962 20.3276 12.4292 18.8704 11.226C19.9733 10.3139 21.3374 9.81891 22.7419 9.82105C26.2012 9.82105 29.0056 12.763 29.0056 16.3922Z" fill="#F8F9FA"/>
<rect opacity="0.5" x="11.3323" y="79" width="50.0941" height="9" fill="#FBFBFC"/>
<rect opacity="0.5" x="10.3304" y="40" width="131.246" height="19" fill="#FBFBFC"/>
<rect opacity="0.5" x="11.3323" y="90" width="38.0715" height="9" fill="#FBFBFC"/>
</g>
</svg>
