<svg width="40" height="40" viewBox="0 0 40 40" fill="none" xmlns="http://www.w3.org/2000/svg">
<circle cx="20" cy="20" r="19.5" fill="white" stroke="white"/>
<path d="M15.3643 12L12.9999 15.1525V26.186C12.9999 26.6041 13.166 27.005 13.4616 27.3006C13.7572 27.5962 14.1581 27.7623 14.5762 27.7623H25.6098C26.0278 27.7623 26.4287 27.5962 26.7243 27.3006C27.0199 27.005 27.186 26.6041 27.186 26.186V15.1525L24.8216 12H15.3643Z" stroke="#369BFF" stroke-width="1.5" stroke-linecap="round" stroke-linejoin="round"/>
<path d="M12.9999 15.1523H27.186" stroke="#369BFF" stroke-width="1.5" stroke-linecap="round" stroke-linejoin="round"/>
<path d="M23.2455 18.3047C23.2455 19.1408 22.9134 19.9426 22.3222 20.5338C21.731 21.125 20.9291 21.4571 20.0931 21.4571C19.257 21.4571 18.4551 21.125 17.8639 20.5338C17.2727 19.9426 16.9406 19.1408 16.9406 18.3047" stroke="#369BFF" stroke-width="1.5" stroke-linecap="round" stroke-linejoin="round"/>
</svg>
