<svg width="40" height="40" viewBox="0 0 40 40" fill="none" xmlns="http://www.w3.org/2000/svg">
<circle cx="20" cy="20" r="20" fill="white"/>
<path d="M20.4486 28.8973C25.1147 28.8973 28.8973 25.1147 28.8973 20.4486C28.8973 15.7826 25.1147 12 20.4486 12C15.7826 12 12 15.7826 12 20.4486C12 25.1147 15.7826 28.8973 20.4486 28.8973Z" stroke="#FB6D3A" stroke-width="1.67823" stroke-linecap="round" stroke-linejoin="round"/>
<path d="M17.9904 17.9137C18.189 17.3491 18.581 16.8729 19.0971 16.5697C19.6131 16.2664 20.2199 16.1555 20.8098 16.2567C21.3998 16.3579 21.9349 16.6646 22.3203 17.1225C22.7058 17.5805 22.9168 18.16 22.9159 18.7586C22.9159 20.4483 20.3813 21.2932 20.3813 21.2932" stroke="#FB6D3A" stroke-width="1.67823" stroke-linecap="round" stroke-linejoin="round"/>
<path d="M20.4493 24.6313H20.4573" stroke="#FB6D3A" stroke-width="1.67823" stroke-linecap="round" stroke-linejoin="round"/>
</svg>
