<svg width="40" height="40" viewBox="0 0 40 40" fill="none" xmlns="http://www.w3.org/2000/svg">
<circle cx="20" cy="20" r="19.5" fill="white" stroke="white"/>
<path d="M24.1471 16.9432C24.1471 15.7998 23.6929 14.7033 22.8844 13.8948C22.0759 13.0863 20.9793 12.6321 19.8359 12.6321C18.6925 12.6321 17.596 13.0863 16.7875 13.8948C15.979 14.7033 15.5248 15.7998 15.5248 16.9432C15.5248 21.9729 13.3692 23.41 13.3692 23.41H26.3026C26.3026 23.41 24.1471 21.9729 24.1471 16.9432Z" stroke="#FFAA2A" stroke-width="1.5" stroke-linecap="round" stroke-linejoin="round"/>
<path d="M21.079 26.2842C20.9527 26.5019 20.7713 26.6827 20.5532 26.8084C20.335 26.934 20.0877 27.0002 19.8359 27.0002C19.5842 27.0002 19.3368 26.934 19.1187 26.8084C18.9005 26.6827 18.7192 26.5019 18.5929 26.2842" stroke="#FFAA2A" stroke-width="1.5" stroke-linecap="round" stroke-linejoin="round"/>
</svg>
