<svg width="40" height="40" viewBox="0 0 40 40" fill="none" xmlns="http://www.w3.org/2000/svg">
<circle cx="20" cy="20" r="19.5" fill="white" stroke="white"/>
<path d="M20 22C21.1046 22 22 21.1046 22 20C22 18.8954 21.1046 18 20 18C18.8954 18 18 18.8954 18 20C18 21.1046 18.8954 22 20 22Z" stroke="#413DFB" stroke-width="1.2" stroke-linecap="round" stroke-linejoin="round"/>
<path d="M24.9333 22.0003C24.8445 22.2014 24.8181 22.4245 24.8573 22.6407C24.8965 22.857 24.9996 23.0565 25.1533 23.2137L25.1933 23.2537C25.3173 23.3775 25.4156 23.5245 25.4827 23.6864C25.5498 23.8483 25.5843 24.0218 25.5843 24.197C25.5843 24.3722 25.5498 24.5457 25.4827 24.7076C25.4156 24.8694 25.3173 25.0165 25.1933 25.1403C25.0695 25.2643 24.9224 25.3626 24.7605 25.4297C24.5987 25.4968 24.4252 25.5314 24.25 25.5314C24.0747 25.5314 23.9012 25.4968 23.7394 25.4297C23.5775 25.3626 23.4305 25.2643 23.3066 25.1403L23.2666 25.1003C23.1095 24.9466 22.9099 24.8435 22.6937 24.8043C22.4774 24.7651 22.2544 24.7916 22.0533 24.8803C21.8561 24.9648 21.6879 25.1052 21.5695 25.284C21.451 25.4629 21.3875 25.6725 21.3866 25.887V26.0003C21.3866 26.3539 21.2461 26.6931 20.9961 26.9431C20.7461 27.1932 20.4069 27.3337 20.0533 27.3337C19.6997 27.3337 19.3605 27.1932 19.1105 26.9431C18.8604 26.6931 18.72 26.3539 18.72 26.0003V25.9403C18.7148 25.7197 18.6434 25.5057 18.515 25.3261C18.3866 25.1466 18.2071 25.0098 18 24.9337C17.7989 24.8449 17.5758 24.8184 17.3596 24.8577C17.1433 24.8969 16.9437 25 16.7866 25.1537L16.7466 25.1937C16.6228 25.3176 16.4757 25.416 16.3139 25.4831C16.152 25.5502 15.9785 25.5847 15.8033 25.5847C15.6281 25.5847 15.4546 25.5502 15.2927 25.4831C15.1308 25.416 14.9838 25.3176 14.86 25.1937C14.736 25.0698 14.6376 24.9228 14.5705 24.7609C14.5034 24.599 14.4689 24.4255 14.4689 24.2503C14.4689 24.0751 14.5034 23.9016 14.5705 23.7397C14.6376 23.5779 14.736 23.4308 14.86 23.307L14.9 23.267C15.0537 23.1099 15.1567 22.9103 15.196 22.6941C15.2352 22.4778 15.2087 22.2547 15.12 22.0537C15.0355 21.8565 14.8951 21.6883 14.7163 21.5699C14.5374 21.4514 14.3278 21.3878 14.1133 21.387H14C13.6463 21.387 13.3072 21.2465 13.0572 20.9965C12.8071 20.7464 12.6666 20.4073 12.6666 20.0537C12.6666 19.7 12.8071 19.3609 13.0572 19.1108C13.3072 18.8608 13.6463 18.7203 14 18.7203H14.06C14.2806 18.7152 14.4946 18.6437 14.6742 18.5153C14.8537 18.3869 14.9904 18.2075 15.0666 18.0003C15.1554 17.7992 15.1818 17.5762 15.1426 17.3599C15.1034 17.1437 15.0003 16.9441 14.8466 16.787L14.8066 16.747C14.6827 16.6232 14.5843 16.4761 14.5172 16.3142C14.4501 16.1524 14.4156 15.9789 14.4156 15.8037C14.4156 15.6284 14.4501 15.4549 14.5172 15.2931C14.5843 15.1312 14.6827 14.9842 14.8066 14.8603C14.9305 14.7364 15.0775 14.638 15.2394 14.5709C15.4012 14.5038 15.5747 14.4693 15.75 14.4693C15.9252 14.4693 16.0987 14.5038 16.2605 14.5709C16.4224 14.638 16.5695 14.7364 16.6933 14.8603L16.7333 14.9003C16.8904 15.054 17.09 15.1571 17.3062 15.1963C17.5225 15.2355 17.7455 15.2091 17.9466 15.1203H18C18.1971 15.0358 18.3653 14.8955 18.4838 14.7166C18.6022 14.5378 18.6658 14.3282 18.6666 14.1137V14.0003C18.6666 13.6467 18.8071 13.3076 19.0571 13.0575C19.3072 12.8075 19.6463 12.667 20 12.667C20.3536 12.667 20.6927 12.8075 20.9428 13.0575C21.1928 13.3076 21.3333 13.6467 21.3333 14.0003V14.0603C21.3341 14.2748 21.3977 14.4844 21.5162 14.6633C21.6346 14.8422 21.8028 14.9825 22 15.067C22.201 15.1557 22.4241 15.1822 22.6404 15.143C22.8566 15.1038 23.0562 15.0007 23.2133 14.847L23.2533 14.807C23.3771 14.683 23.5242 14.5847 23.686 14.5176C23.8479 14.4505 24.0214 14.4159 24.1966 14.4159C24.3718 14.4159 24.5453 14.4505 24.7072 14.5176C24.8691 14.5847 25.0161 14.683 25.14 14.807C25.2639 14.9308 25.3623 15.0779 25.4294 15.2397C25.4965 15.4016 25.531 15.5751 25.531 15.7503C25.531 15.9255 25.4965 16.099 25.4294 16.2609C25.3623 16.4228 25.2639 16.5698 25.14 16.6937L25.1 16.7337C24.9463 16.8908 24.8432 17.0903 24.804 17.3066C24.7647 17.5229 24.7912 17.7459 24.88 17.947V18.0003C24.9645 18.1975 25.1048 18.3657 25.2836 18.4841C25.4625 18.6026 25.6721 18.6661 25.8866 18.667H26C26.3536 18.667 26.6927 18.8075 26.9428 19.0575C27.1928 19.3076 27.3333 19.6467 27.3333 20.0003C27.3333 20.3539 27.1928 20.6931 26.9428 20.9431C26.6927 21.1932 26.3536 21.3337 26 21.3337H25.94C25.7254 21.3345 25.5158 21.3981 25.337 21.5165C25.1581 21.635 25.0178 21.8031 24.9333 22.0003V22.0003Z" stroke="#413DFB" stroke-width="1.2" stroke-linecap="round" stroke-linejoin="round"/>
</svg>
