<svg width="40" height="40" viewBox="0 0 40 40" fill="none" xmlns="http://www.w3.org/2000/svg">
<circle cx="20" cy="20" r="20" fill="white"/>
<path d="M24 14C23.4696 14 22.9609 14.2107 22.5858 14.5858C22.2107 14.9609 22 15.4696 22 16V24C22 24.5304 22.2107 25.0391 22.5858 25.4142C22.9609 25.7893 23.4696 26 24 26C24.5304 26 25.0391 25.7893 25.4142 25.4142C25.7893 25.0391 26 24.5304 26 24C26 23.4696 25.7893 22.9609 25.4142 22.5858C25.0391 22.2107 24.5304 22 24 22H16C15.4696 22 14.9609 22.2107 14.5858 22.5858C14.2107 22.9609 14 23.4696 14 24C14 24.5304 14.2107 25.0391 14.5858 25.4142C14.9609 25.7893 15.4696 26 16 26C16.5304 26 17.0391 25.7893 17.4142 25.4142C17.7893 25.0391 18 24.5304 18 24V16C18 15.4696 17.7893 14.9609 17.4142 14.5858C17.0391 14.2107 16.5304 14 16 14C15.4696 14 14.9609 14.2107 14.5858 14.5858C14.2107 14.9609 14 15.4696 14 16C14 16.5304 14.2107 17.0391 14.5858 17.4142C14.9609 17.7893 15.4696 18 16 18H24C24.5304 18 25.0391 17.7893 25.4142 17.4142C25.7893 17.0391 26 16.5304 26 16C26 15.4696 25.7893 14.9609 25.4142 14.5858C25.0391 14.2107 24.5304 14 24 14Z" stroke="#2AE1E1" stroke-width="1.28571" stroke-linecap="round" stroke-linejoin="round"/>
</svg>
